<?xml version="1.0" standalone="no"?>
<!DOCTYPE svg PUBLIC "-//W3C//DTD SVG 20010904//EN"
 "http://www.w3.org/TR/2001/REC-SVG-20010904/DTD/svg10.dtd">
<svg version="1.0" xmlns="http://www.w3.org/2000/svg"
 width="401.000000pt" height="401.000000pt" viewBox="0 0 401.000000 401.000000"
 preserveAspectRatio="xMidYMid meet">

<g transform="translate(0.000000,401.000000) scale(0.100000,-0.100000)"
fill="#000000" stroke="none">
<path d="M1801 2975 c-127 -28 -298 -96 -286 -115 4 -6 -1 -7 -11 -3 -11 4
-15 2 -11 -4 4 -6 -1 -10 -11 -9 -9 0 -16 -4 -15 -10 1 -7 -5 -11 -15 -10 -9
0 -16 -4 -15 -10 1 -7 -5 -11 -15 -10 -9 0 -16 -5 -14 -12 1 -8 -2 -11 -7 -7
-6 3 -25 -9 -43 -26 -18 -17 -24 -25 -13 -18 18 13 19 13 6 -3 -7 -10 -17 -16
-21 -13 -4 2 -18 -7 -30 -20 -13 -14 -20 -25 -16 -25 5 0 3 -7 -4 -15 -7 -8
-16 -13 -20 -10 -11 7 -41 -30 -38 -46 2 -7 -4 -13 -12 -14 -8 0 -14 -8 -14
-17 1 -10 -3 -16 -10 -15 -6 1 -10 -6 -10 -15 1 -10 -2 -15 -7 -13 -11 8 -31
-33 -23 -47 5 -7 3 -8 -6 -3 -10 6 -12 4 -7 -9 4 -10 3 -15 -3 -11 -5 3 -21
-20 -36 -52 -64 -146 -101 -346 -89 -486 38 -432 334 -782 755 -894 81 -22
116 -26 240 -25 123 0 160 4 241 25 371 97 633 364 729 742 46 179 32 381 -39
575 -48 130 -60 147 -118 154 -26 3 -108 13 -181 23 l-134 17 -18 36 c-49 95
-160 183 -281 222 -38 12 -65 25 -59 28 5 3 4 25 -5 55 -7 28 -16 62 -19 78
l-6 27 -123 -1 c-67 0 -151 -7 -186 -14z m292 -142 c-7 -2 -19 -2 -25 0 -7 3
-2 5 12 5 14 0 19 -2 13 -5z m-283 -167 c0 -2 -9 -6 -20 -9 -11 -3 -18 -1 -14
4 5 9 34 13 34 5z m151 -103 c13 -16 12 -17 -3 -4 -10 7 -18 15 -18 17 0 8 8
3 21 -13z m-301 3 c0 -2 -8 -10 -17 -17 -16 -13 -17 -12 -4 4 13 16 21 21 21
13z m-60 -49 c0 -2 -10 -12 -22 -23 l-23 -19 19 23 c18 21 26 27 26 19z m450
-32 c19 -19 32 -35 29 -35 -3 0 -20 16 -39 35 -19 19 -32 35 -29 35 3 0 20
-16 39 -35z m-500 -8 c0 -2 -10 -12 -22 -23 l-23 -19 19 23 c18 21 26 27 26
19z m-153 -39 c-3 -8 -6 -5 -6 6 -1 11 2 17 5 13 3 -3 4 -12 1 -19z m728 -38
c10 -11 16 -20 13 -20 -3 0 -13 9 -23 20 -10 11 -16 20 -13 20 3 0 13 -9 23
-20z m432 -42 c-3 -7 -5 -2 -5 12 0 14 2 19 5 13 2 -7 2 -19 0 -25z"/>
</g>
</svg>
